<svg xmlns="http://www.w3.org/2000/svg" xmlns:xlink="http://www.w3.org/1999/xlink" width="47.621" height="43.042" viewBox="0 0 47.621 43.042">
  <defs>
    <filter id="Path_1" x="6.976" y="0" width="21.062" height="18.888" filterUnits="userSpaceOnUse">
      <feOffset input="SourceAlpha"/>
      <feGaussianBlur stdDeviation="1.5" result="blur"/>
      <feFlood flood-color="#9bef09"/>
      <feComposite operator="in" in2="blur"/>
      <feComposite in="SourceGraphic"/>
    </filter>
    <filter id="Path_2" x="20.262" y="0" width="20.648" height="19.283" filterUnits="userSpaceOnUse">
      <feOffset input="SourceAlpha"/>
      <feGaussianBlur stdDeviation="1.5" result="blur-2"/>
      <feFlood flood-color="#ef09e8"/>
      <feComposite operator="in" in2="blur-2"/>
      <feComposite in="SourceGraphic"/>
    </filter>
    <filter id="Path_3" x="11.478" y="0.485" width="24.688" height="19.054" filterUnits="userSpaceOnUse">
      <feOffset input="SourceAlpha"/>
      <feGaussianBlur stdDeviation="1.5" result="blur-3"/>
      <feFlood flood-color="#fafb09"/>
      <feComposite operator="in" in2="blur-3"/>
      <feComposite in="SourceGraphic"/>
    </filter>
    <filter id="Path_4" x="0" y="0.907" width="19.004" height="18.632" filterUnits="userSpaceOnUse">
      <feOffset input="SourceAlpha"/>
      <feGaussianBlur stdDeviation="1.5" result="blur-4"/>
      <feFlood flood-color="#4f40e1"/>
      <feComposite operator="in" in2="blur-4"/>
      <feComposite in="SourceGraphic"/>
    </filter>
    <filter id="Path_5" x="28.577" y="0.93" width="19.044" height="18.609" filterUnits="userSpaceOnUse">
      <feOffset input="SourceAlpha"/>
      <feGaussianBlur stdDeviation="1.5" result="blur-5"/>
      <feFlood flood-color="#a404f4"/>
      <feComposite operator="in" in2="blur-5"/>
      <feComposite in="SourceGraphic"/>
    </filter>
    <filter id="Path_6" x="0.083" y="10.798" width="26.688" height="30.452" filterUnits="userSpaceOnUse">
      <feOffset input="SourceAlpha"/>
      <feGaussianBlur stdDeviation="1.5" result="blur-6"/>
      <feFlood flood-color="#58fbc6"/>
      <feComposite operator="in" in2="blur-6"/>
      <feComposite in="SourceGraphic"/>
    </filter>
    <filter id="Path_7" x="10.916" y="10.798" width="25.97" height="32.245" filterUnits="userSpaceOnUse">
      <feOffset input="SourceAlpha"/>
      <feGaussianBlur stdDeviation="1.5" result="blur-7"/>
      <feFlood flood-color="#fb0c8c"/>
      <feComposite operator="in" in2="blur-7"/>
      <feComposite in="SourceGraphic"/>
    </filter>
    <filter id="Path_8" x="20.438" y="10.798" width="27.127" height="30.451" filterUnits="userSpaceOnUse">
      <feOffset input="SourceAlpha"/>
      <feGaussianBlur stdDeviation="1.5" result="blur-8"/>
      <feFlood flood-color="#56ebe7"/>
      <feComposite operator="in" in2="blur-8"/>
      <feComposite in="SourceGraphic"/>
    </filter>
    <filter id="Path_1-2" x="6.976" y="0" width="21.062" height="18.888" filterUnits="userSpaceOnUse">
      <feOffset input="SourceAlpha"/>
      <feGaussianBlur stdDeviation="1.5" result="blur-9"/>
      <feFlood flood-color="#9bef09"/>
      <feComposite operator="in" in2="blur-9"/>
      <feComposite in="SourceGraphic"/>
    </filter>
    <filter id="Path_2-2" x="20.262" y="0" width="20.648" height="19.283" filterUnits="userSpaceOnUse">
      <feOffset input="SourceAlpha"/>
      <feGaussianBlur stdDeviation="1.5" result="blur-10"/>
      <feFlood flood-color="#ef09e8"/>
      <feComposite operator="in" in2="blur-10"/>
      <feComposite in="SourceGraphic"/>
    </filter>
    <filter id="Path_3-2" x="11.478" y="0.485" width="24.688" height="19.054" filterUnits="userSpaceOnUse">
      <feOffset input="SourceAlpha"/>
      <feGaussianBlur stdDeviation="1.5" result="blur-11"/>
      <feFlood flood-color="#fafb09"/>
      <feComposite operator="in" in2="blur-11"/>
      <feComposite in="SourceGraphic"/>
    </filter>
    <filter id="Path_4-2" x="0" y="0.907" width="19.004" height="18.632" filterUnits="userSpaceOnUse">
      <feOffset input="SourceAlpha"/>
      <feGaussianBlur stdDeviation="1.5" result="blur-12"/>
      <feFlood flood-color="#4f40e1"/>
      <feComposite operator="in" in2="blur-12"/>
      <feComposite in="SourceGraphic"/>
    </filter>
    <filter id="Path_5-2" x="28.577" y="0.93" width="19.044" height="18.609" filterUnits="userSpaceOnUse">
      <feOffset input="SourceAlpha"/>
      <feGaussianBlur stdDeviation="1.5" result="blur-13"/>
      <feFlood flood-color="#a404f4"/>
      <feComposite operator="in" in2="blur-13"/>
      <feComposite in="SourceGraphic"/>
    </filter>
    <filter id="Path_6-2" x="0.083" y="10.798" width="26.688" height="30.452" filterUnits="userSpaceOnUse">
      <feOffset input="SourceAlpha"/>
      <feGaussianBlur stdDeviation="1.5" result="blur-14"/>
      <feFlood flood-color="#58fbc6"/>
      <feComposite operator="in" in2="blur-14"/>
      <feComposite in="SourceGraphic"/>
    </filter>
    <filter id="Path_7-2" x="10.916" y="10.798" width="25.97" height="32.245" filterUnits="userSpaceOnUse">
      <feOffset input="SourceAlpha"/>
      <feGaussianBlur stdDeviation="1.5" result="blur-15"/>
      <feFlood flood-color="#fb0c8c"/>
      <feComposite operator="in" in2="blur-15"/>
      <feComposite in="SourceGraphic"/>
    </filter>
    <filter id="Path_8-2" x="20.438" y="10.798" width="27.127" height="30.451" filterUnits="userSpaceOnUse">
      <feOffset input="SourceAlpha"/>
      <feGaussianBlur stdDeviation="1.5" result="blur-16"/>
      <feFlood flood-color="#56ebe7"/>
      <feComposite operator="in" in2="blur-16"/>
      <feComposite in="SourceGraphic"/>
    </filter>
  </defs>
  <g id="Group_1" data-name="Group 1" transform="translate(-120.498 -96.95)">
    <g id="Group_3" data-name="Group 3">
      <g id="diamond" transform="translate(126.2 582)">
        <g transform="matrix(1, 0, 0, 1, -5.7, -485.05)" filter="url(#Path_1)">
          <path id="Path_1-3" data-name="Path 1" d="M91.2-479.914l2.672,7.308.531,1.394c.006,0,.238-.28.813-.98,1.353-1.646,5.352-6.56,6.18-7.6l.164-.207H96.366A42.78,42.78,0,0,0,91.2-479.914Z" transform="translate(-79.16 485.05)" fill="none" stroke="#9bef09" stroke-width="1.1"/>
        </g>
        <g transform="matrix(1, 0, 0, 1, -5.7, -485.05)" filter="url(#Path_2)">
          <path id="Path_2-3" data-name="Path 2" d="M277-479.878c.057.072,1.595,1.959,3.418,4.2s3.375,4.147,3.468,4.24l.157.165.079-.2c.143-.357,3.161-8.481,3.161-8.5s-2.338-.029-5.2-.029C277.141-480,276.9-479.993,277-479.878Z" transform="translate(-251.66 485.05)" fill="none" stroke="#ef09e8" stroke-width="1.1"/>
        </g>
        <g transform="matrix(1, 0, 0, 1, -5.7, -485.05)" filter="url(#Path_3)">
          <path id="Path_3-3" data-name="Path 3" d="M157.832-469.275c-1.988,2.438-3.618,4.469-3.633,4.505s3.261.057,7.272.057,7.3-.014,7.3-.036c0-.05-7.222-8.931-7.28-8.953C161.465-473.715,159.82-471.72,157.832-469.275Z" transform="translate(-137.66 479.2)" fill="none" stroke="#fafb09" stroke-width="1.1"/>
        </g>
        <g transform="matrix(1, 0, 0, 1, -5.7, -485.05)" filter="url(#Path_4)">
          <path id="Path_4-3" data-name="Path 4" d="M2.617-463.1C1.23-460.876.029-458.945-.05-458.824l-.15.236H4.026a35.806,35.806,0,0,0,4.226-.079c0-.1-3.011-8.374-3.068-8.438C5.163-467.133,4-465.331,2.617-463.1Z" transform="translate(5.7 473.08)" fill="none" stroke="#4f40e1" stroke-width="1.1"/>
        </g>
        <g transform="matrix(1, 0, 0, 1, -5.7, -485.05)" filter="url(#Path_5)">
          <path id="Path_5-3" data-name="Path 5" d="M394.741-462.874c-.844,2.267-1.545,4.183-1.559,4.255-.021.122.15.129,4.24.129h4.269l-.1-.165c-.057-.086-1.259-2-2.667-4.255s-2.574-4.09-2.6-4.09S395.584-465.141,394.741-462.874Z" transform="translate(-359.55 472.98)" fill="none" stroke="#a404f4" stroke-width="1.1"/>
        </g>
        <g transform="matrix(1, 0, 0, 1, -5.7, -485.05)" filter="url(#Path_6)">
          <path id="Path_6-3" data-name="Path 6" d="M3.645-328.064c.408.523,3.962,5.057,7.889,10.084.979,1.252,1.918,2.451,2.969,3.791,2.4,3.063,4.266,5.435,4.325,5.5.115.118.093.015-.107-.553-.136-.383-1.741-4.895-3.561-10.025s-3.346-9.413-3.382-9.531l-.072-.2H2.9Z" transform="translate(2.82 344.85)" fill="none" stroke="#58fbc6" stroke-width="1.1"/>
        </g>
        <g transform="matrix(1, 0, 0, 1, -5.7, -485.05)" filter="url(#Path_7)">
          <path id="Path_7-3" data-name="Path 7" d="M146.3-328.914c.014.05,1.73,4.741,3.8,10.426s3.8,10.412,3.847,10.512l.064.179.093-.215c.086-.193,7.508-20.1,7.73-20.723l.093-.265H154.09C147.854-329,146.267-328.979,146.3-328.914Z" transform="translate(-130.32 344.85)" fill="none" stroke="#fb0c8c" stroke-width="1.1"/>
        </g>
        <g transform="matrix(1, 0, 0, 1, -5.7, -485.05)" filter="url(#Path_8)">
          <path id="Path_8-3" data-name="Path 8" d="M286.687-328.521c-.7,1.859-7.394,19.865-7.387,19.872s3.154-3.876,6.986-8.638,7.53-9.346,8.2-10.183l1.237-1.53h-8.853Z" transform="translate(-253.81 344.85)" fill="none" stroke="#56ebe7" stroke-width="1.1"/>
        </g>
      </g>
      <g id="diamond-2" data-name="diamond" transform="translate(126.2 582)">
        <g transform="matrix(1, 0, 0, 1, -5.7, -485.05)" filter="url(#Path_1-2)">
          <path id="Path_1-4" data-name="Path 1" d="M91.2-479.914l2.672,7.308.531,1.394c.006,0,.238-.28.813-.98,1.353-1.646,5.352-6.56,6.18-7.6l.164-.207H96.366A42.78,42.78,0,0,0,91.2-479.914Z" transform="translate(-79.16 485.05)" fill="none" stroke="#9bef09" stroke-width="1.1"/>
        </g>
        <g transform="matrix(1, 0, 0, 1, -5.7, -485.05)" filter="url(#Path_2-2)">
          <path id="Path_2-4" data-name="Path 2" d="M277-479.878c.057.072,1.595,1.959,3.418,4.2s3.375,4.147,3.468,4.24l.157.165.079-.2c.143-.357,3.161-8.481,3.161-8.5s-2.338-.029-5.2-.029C277.141-480,276.9-479.993,277-479.878Z" transform="translate(-251.66 485.05)" fill="none" stroke="#ef09e8" stroke-width="1.1"/>
        </g>
        <g transform="matrix(1, 0, 0, 1, -5.7, -485.05)" filter="url(#Path_3-2)">
          <path id="Path_3-4" data-name="Path 3" d="M157.832-469.275c-1.988,2.438-3.618,4.469-3.633,4.505s3.261.057,7.272.057,7.3-.014,7.3-.036c0-.05-7.222-8.931-7.28-8.953C161.465-473.715,159.82-471.72,157.832-469.275Z" transform="translate(-137.66 479.2)" fill="none" stroke="#fafb09" stroke-width="1.1"/>
        </g>
        <g transform="matrix(1, 0, 0, 1, -5.7, -485.05)" filter="url(#Path_4-2)">
          <path id="Path_4-4" data-name="Path 4" d="M2.617-463.1C1.23-460.876.029-458.945-.05-458.824l-.15.236H4.026a35.806,35.806,0,0,0,4.226-.079c0-.1-3.011-8.374-3.068-8.438C5.163-467.133,4-465.331,2.617-463.1Z" transform="translate(5.7 473.08)" fill="none" stroke="#4f40e1" stroke-width="1.1"/>
        </g>
        <g transform="matrix(1, 0, 0, 1, -5.7, -485.05)" filter="url(#Path_5-2)">
          <path id="Path_5-4" data-name="Path 5" d="M394.741-462.874c-.844,2.267-1.545,4.183-1.559,4.255-.021.122.15.129,4.24.129h4.269l-.1-.165c-.057-.086-1.259-2-2.667-4.255s-2.574-4.09-2.6-4.09S395.584-465.141,394.741-462.874Z" transform="translate(-359.55 472.98)" fill="none" stroke="#a404f4" stroke-width="1.1"/>
        </g>
        <g transform="matrix(1, 0, 0, 1, -5.7, -485.05)" filter="url(#Path_6-2)">
          <path id="Path_6-4" data-name="Path 6" d="M3.645-328.064c.408.523,3.962,5.057,7.889,10.084.979,1.252,1.918,2.451,2.969,3.791,2.4,3.063,4.266,5.435,4.325,5.5.115.118.093.015-.107-.553-.136-.383-1.741-4.895-3.561-10.025s-3.346-9.413-3.382-9.531l-.072-.2H2.9Z" transform="translate(2.82 344.85)" fill="none" stroke="#58fbc6" stroke-width="1.1"/>
        </g>
        <g transform="matrix(1, 0, 0, 1, -5.7, -485.05)" filter="url(#Path_7-2)">
          <path id="Path_7-4" data-name="Path 7" d="M146.3-328.914c.014.05,1.73,4.741,3.8,10.426s3.8,10.412,3.847,10.512l.064.179.093-.215c.086-.193,7.508-20.1,7.73-20.723l.093-.265H154.09C147.854-329,146.267-328.979,146.3-328.914Z" transform="translate(-130.32 344.85)" fill="none" stroke="#fb0c8c" stroke-width="1.1"/>
        </g>
        <g transform="matrix(1, 0, 0, 1, -5.7, -485.05)" filter="url(#Path_8-2)">
          <path id="Path_8-4" data-name="Path 8" d="M286.687-328.521c-.7,1.859-7.394,19.865-7.387,19.872s3.154-3.876,6.986-8.638,7.53-9.346,8.2-10.183l1.237-1.53h-8.853Z" transform="translate(-253.81 344.85)" fill="none" stroke="#56ebe7" stroke-width="1.1"/>
        </g>
      </g>
    </g>
  </g>
</svg>
